<svg t="1706844431137" class="icon" viewBox="0 0 1211 1024" version="1.1" xmlns="http://www.w3.org/2000/svg" p-id="4457" width="600" height="600"><path d="M1208.32 26.331429c2.925714-2.925714 2.925714-8.777143 2.925714-11.702858-2.925714-2.925714-5.851429-5.851429-11.702857-5.851428H509.074286C228.205714 5.851429 0 234.057143 0 512s228.205714 506.148571 509.074286 506.148571c134.582857 0 263.314286-52.662857 359.862857-149.211428 146.285714-140.434286 228.205714-406.674286 292.571428-649.508572l2.925715-8.777142 5.851428-17.554286c0-2.925714 0-5.851429-2.925714-8.777143-2.925714-2.925714-5.851429-5.851429-8.777143-5.851429h-87.771428c-5.851429 0-8.777143-2.925714-11.702858-5.851428-2.925714-2.925714 0-8.777143 2.925715-11.702857l146.285714-134.582857z" fill="#FF3850" p-id="4458"></path><path d="M722.651429 239.908571h-193.097143c-46.811429 0-84.845714 38.034286-84.845715 84.845715v35.108571h73.142858v-35.108571c0-5.851429 5.851429-11.702857 11.702857-11.702857h193.097143c5.851429 0 11.702857 5.851429 11.702857 11.702857v193.097143c0 5.851429-5.851429 11.702857-11.702857 11.702857h-193.097143c-5.851429 0-11.702857-5.851429-11.702857-11.702857v-35.108572h-73.142858v35.108572c0 46.811429 38.034286 84.845714 84.845715 84.845714h193.097143c46.811429 0 84.845714-38.034286 84.845714-84.845714v-193.097143c0-46.811429-38.034286-84.845714-84.845714-84.845715z m-134.582858 427.154286c0 5.851429-5.851429 11.702857-11.702857 11.702857h-193.097143c-5.851429 0-11.702857-5.851429-11.702857-11.702857v-193.097143c0-5.851429 5.851429-11.702857 11.702857-11.702857h193.097143c5.851429 0 11.702857 5.851429 11.702857 11.702857v35.108572h73.142858v-35.108572c0-46.811429-38.034286-84.845714-84.845715-84.845714h-193.097143c-46.811429 0-84.845714 38.034286-84.845714 84.845714v193.097143c0 46.811429 38.034286 84.845714 84.845714 84.845714h193.097143c46.811429 0 84.845714-38.034286 84.845715-84.845714v-35.108571h-73.142858v35.108571z" fill="#FFFFFF" p-id="4459"></path></svg>